# xmcd
#
# Track frame offsets: 
#        150
#        17147
#        31407
#        47224
#        64410
#        83047
#        101333
#        122677
#        141468
#
# Disc length: 2109 seconds
#
# Revision: 0
# Processed by: cddbd v1.5.2PL0 Copyright (c) Steve Scherf et al.
# Submitted via: ExactAudioCopy v0.99pb4
#
DISCID=7a083b09
DTITLE=K.T. Oslin - Love In a Small Town
DYEAR=1990
DGENRE=Corporate Country
TTITLE0=Come Next Monday
TTITLE1=Oo-Wee
TTITLE2=Mary and Willi
TTITLE3=Love Is Strange
TTITLE4=Momma Was a Dancer
TTITLE5=New Way Home
TTITLE6=Cornell Crawford
TTITLE7=Still On My Mind
TTITLE8=You Call Everybody Darling
EXTD=
EXTT0=
EXTT1=
EXTT2=
EXTT3=
EXTT4=
EXTT5=
EXTT6=
EXTT7=
EXTT8=
PLAYORDER=
